<?xml version="1.0" encoding="utf-8"?>
<!-- Generator: Adobe Illustrator 24.1.0, SVG Export Plug-In . SVG Version: 6.00 Build 0)  -->
<svg version="1.1" id="Layer_1" xmlns="http://www.w3.org/2000/svg" xmlns:xlink="http://www.w3.org/1999/xlink" x="0px" y="0px"
	 viewBox="0 0 1080 810" style="enable-background:new 0 0 1080 810;" xml:space="preserve">
<style type="text/css">
	.st0{fill:#00AAC4;}
	.st1{fill:#009345;}
	.st2{fill:#4D186E;}
</style>
<g>
	<g>
		<g>
			<polygon class="st0" points="589.9,369.3 611.5,347.7 633,326.1 676.2,369.3 658.1,420.8 			"/>
		</g>
		<g>
			<polygon class="st0" points="421.9,420.8 403.8,369.3 447,326.1 468.5,347.7 490.1,369.3 			"/>
		</g>
		<g>
			<polygon class="st1" points="586.5,365.9 608.1,344.3 629.7,322.7 586.5,279.6 543.4,322.7 565,344.3 			"/>
		</g>
		<g>
			<polygon class="st0" points="540,326.1 518.4,347.7 496.9,369.3 540,412.4 583.1,369.3 561.6,347.7 			"/>
		</g>
		<g>
			
				<rect x="509.5" y="245.7" transform="matrix(0.7071 -0.7071 0.7071 0.7071 -37.1583 462.7438)" class="st2" width="61" height="61"/>
		</g>
		<g>
			<polygon class="st1" points="493.5,279.6 450.3,322.7 493.5,365.9 515.1,344.3 536.6,322.7 			"/>
		</g>
	</g>
	<g>
		<g>
			<g>
				<path class="st2" d="M289.9,518.5c-4.4,0-8.6-0.6-12.7-1.9c-4.1-1.3-7.7-3.1-10.9-5.6c-3.1-2.5-5.4-5.2-7-8.3
					c-1.6-3.1-2.4-6.3-2.4-9.8c0-3.4,0.8-6.6,2.4-9.7c1.6-3.1,4-5.9,7-8.2c3.1-2.4,6.6-4.2,10.5-5.5c4-1.3,8.1-2,12.4-2
					c4.4,0,8.8,0.7,13.2,2c4.4,1.3,8.1,3.1,11.1,5.5l0.1,0.1l12.9-10.2h-0.1c-4.7-3.8-10.1-6.7-16.2-8.7c-6.1-2-12.6-3.1-19.5-3.1
					c-6.8,0-13.3,1-19.5,3.1c-6.1,2-11.6,4.9-16.2,8.7c-4.8,3.7-8.5,8-11.1,12.8c-2.6,4.9-3.9,10-3.9,15.3c0,5.5,1.3,10.6,3.9,15.4
					c2.6,4.8,6.3,9.1,11.1,12.9c4.7,3.8,10.1,6.7,16.2,8.7c6.1,2,12.6,3.1,19.5,3.1c6.8,0,13.4-1.1,19.6-3.2v-16.7
					c-2.3,1.4-4.9,2.6-7.7,3.4C298.5,517.9,294.2,518.5,289.9,518.5z"/>
			</g>
			<g>
				<polygon class="st1" points="328.8,533.2 313.6,533.2 313.6,522.3 313.6,509.8 313.6,507.5 291,507.5 291,493 328.8,493 				"/>
			</g>
		</g>
		<g>
			<path class="st2" d="M411.9,496.1c2.9-4.3,4.4-8.9,4.4-13.9c0-5.3-1.7-10.2-5-14.6c-3.3-4.4-7.8-8-13.5-10.6
				c-5.7-2.6-11.9-3.9-18.6-3.9h-39.9v79.8h18.3v-21.4h21.6c1.2,0,2.9-0.1,5.1-0.2c1.8,4.7,4.3,8.6,7.5,11.7
				c5.8,5.8,13.2,9.1,22.2,9.8v-16c-4-0.9-7.4-2.8-10.2-5.6c-1-1-2.2-2.6-3.6-4.7C405,503.8,409,500.3,411.9,496.1z M395.5,489.6
				c-1.7,2.3-4,4.1-6.8,5.4c-2.9,1.3-6,2-9.5,2h-21.6v-29.5h21.6c3.5,0,6.6,0.7,9.5,2c2.9,1.3,5.2,3.1,6.8,5.4
				c1.7,2.3,2.5,4.7,2.5,7.3C398,484.9,397.1,487.4,395.5,489.6z"/>
		</g>
		<g>
			<path class="st2" d="M506.8,464.9c-4.7-3.8-10.1-6.6-16.2-8.7c-6.1-2-12.6-3-19.4-3c-6.8,0-13.3,1-19.4,3
				c-6.1,2-11.5,4.9-16.2,8.7c-4.8,3.7-8.5,8-11.1,12.8c-2.6,4.9-3.9,9.9-3.9,15.2c0,5.4,1.3,10.6,3.9,15.4
				c2.6,4.8,6.3,9.1,11.1,12.9c4.7,3.8,10.1,6.6,16.2,8.7c6.1,2,12.6,3,19.4,3c6.8,0,13.3-1,19.4-3c6.1-2,11.5-4.9,16.2-8.7
				c4.8-3.8,8.5-8.1,11.1-12.9c2.6-4.9,3.9-10,3.9-15.3c0-5.3-1.3-10.3-3.9-15.2C515.3,472.9,511.6,468.6,506.8,464.9z M499,505.8
				c-2.9,3.9-6.8,7-11.7,9.3c-4.9,2.3-10.3,3.5-16.2,3.5c-5.8,0-11.2-1.1-16.2-3.5c-4.9-2.3-8.9-5.4-11.8-9.3
				c-2.9-3.9-4.4-8.2-4.4-12.9c0-4.6,1.5-8.9,4.4-12.8c2.9-3.9,6.8-7,11.8-9.3c4.9-2.3,10.3-3.4,16.2-3.4c5.8,0,11.2,1.1,16.2,3.4
				c4.9,2.3,8.9,5.3,11.7,9.3c2.9,3.9,4.3,8.2,4.3,12.8C503.3,497.6,501.9,501.9,499,505.8z"/>
		</g>
		<g>
			<polygon class="st2" points="654.2,499.6 684.5,499.6 684.5,486 654.2,486 654.2,466.4 686.6,466.4 686.6,453.1 637.2,453.1 
				637.2,532.8 686.6,532.8 686.6,519.5 654.2,519.5 			"/>
		</g>
		<g>
			<polygon class="st2" points="737.8,492.5 765.2,453.1 745.8,453.1 727.9,479.1 710.1,453.1 690.5,453.1 718.2,492.9 690.6,532.8 
				709.8,532.8 727.9,506.9 745.9,532.8 765.2,532.8 737.6,492.9 			"/>
		</g>
		<g>
			<polygon class="st2" points="839.9,532.8 812.3,492.9 812.6,492.5 840,453.1 820.6,453.1 802.6,479.1 784.8,453.1 765.2,453.1 
				793,492.9 765.4,532.8 784.6,532.8 802.6,506.9 820.6,532.8 			"/>
		</g>
		<polygon class="st2" points="614.7,453.6 599.2,512.4 583.7,453.6 567.3,453.6 551.8,512.3 536.3,453.6 520.6,453.6 541.4,532.5 
			562.2,532.5 575.5,482.1 588.8,532.5 609.6,532.5 630.4,453.6 		"/>
	</g>
	<g>
		<path class="st0" d="M366.3,560.6H360v-3h16.1v3h-6.3v16h-3.5V560.6z"/>
		<path class="st0" d="M393.5,573.7v3h-14.2v-19h13.9v3h-10.3v4.9h9.2v2.9h-9.2v5.2H393.5z"/>
		<path class="st0" d="M401.5,575.6c-1.5-0.8-2.8-2-3.6-3.5c-0.9-1.5-1.3-3.2-1.3-5c0-1.9,0.4-3.5,1.3-5c0.9-1.5,2.1-2.6,3.6-3.5
			c1.5-0.8,3.3-1.3,5.2-1.3c1.6,0,3,0.3,4.3,0.8c1.3,0.5,2.4,1.3,3.3,2.4l-2.3,2.1c-1.4-1.5-3.1-2.2-5.1-2.2c-1.3,0-2.5,0.3-3.5,0.9
			c-1,0.6-1.8,1.4-2.4,2.4c-0.6,1-0.9,2.2-0.9,3.4c0,1.3,0.3,2.4,0.9,3.4c0.6,1,1.4,1.8,2.4,2.4c1,0.6,2.2,0.9,3.5,0.9
			c2,0,3.7-0.7,5.1-2.2l2.3,2.2c-0.9,1-2,1.8-3.3,2.4c-1.3,0.5-2.7,0.8-4.3,0.8C404.8,576.9,403,576.5,401.5,575.6z"/>
		<path class="st0" d="M435,557.7v19h-3.5v-8.1h-9.8v8.1h-3.5v-19h3.5v7.8h9.8v-7.8H435z"/>
		<path class="st0" d="M460.8,558.5c1.2,0.5,2.2,1.3,2.8,2.3c0.7,1,1,2.2,1,3.6c0,1.4-0.3,2.6-1,3.6c-0.7,1-1.6,1.8-2.8,2.3
			c-1.2,0.5-2.7,0.8-4.3,0.8h-4.3v5.5h-3.5v-19h7.8C458.1,557.7,459.5,557.9,460.8,558.5z M459.8,567.2c0.8-0.7,1.2-1.6,1.2-2.8
			c0-1.2-0.4-2.1-1.2-2.8c-0.8-0.7-2-1-3.5-1h-4.1v7.5h4.1C457.8,568.2,459,567.9,459.8,567.2z"/>
		<path class="st0" d="M472.5,575.6c-1.6-0.8-2.8-2-3.7-3.5c-0.9-1.5-1.3-3.2-1.3-5c0-1.8,0.4-3.5,1.3-5s2.1-2.7,3.7-3.5
			c1.6-0.8,3.3-1.3,5.2-1.3c1.9,0,3.7,0.4,5.2,1.3c1.6,0.8,2.8,2,3.7,3.5c0.9,1.5,1.3,3.2,1.3,5c0,1.9-0.4,3.5-1.3,5
			c-0.9,1.5-2.1,2.6-3.7,3.5c-1.6,0.8-3.3,1.3-5.2,1.3C475.8,576.9,474.1,576.5,472.5,575.6z M481.2,573c1-0.6,1.8-1.4,2.4-2.4
			c0.6-1,0.9-2.2,0.9-3.4c0-1.3-0.3-2.4-0.9-3.4c-0.6-1-1.4-1.8-2.4-2.4c-1-0.6-2.2-0.9-3.4-0.9s-2.4,0.3-3.4,0.9
			c-1,0.6-1.8,1.4-2.4,2.4c-0.6,1-0.9,2.2-0.9,3.4c0,1.3,0.3,2.4,0.9,3.4c0.6,1,1.4,1.8,2.4,2.4c1,0.6,2.1,0.9,3.4,0.9
			S480.1,573.5,481.2,573z"/>
		<path class="st0" d="M519.4,557.7l-6.3,19h-3.7l-4.7-14l-4.8,14h-3.8l-6.3-19h3.7l4.7,14.4l4.9-14.4h3.3l4.8,14.5l4.9-14.5H519.4z
			"/>
		<path class="st0" d="M537,573.7v3h-14.2v-19h13.9v3h-10.3v4.9h9.2v2.9h-9.2v5.2H537z"/>
		<path class="st0" d="M553.9,576.6l-3.9-5.6c-0.2,0-0.4,0-0.7,0H545v5.5h-3.5v-19h7.8c1.6,0,3.1,0.3,4.3,0.8
			c1.2,0.5,2.2,1.3,2.8,2.3c0.7,1,1,2.2,1,3.6c0,1.4-0.3,2.7-1,3.7c-0.7,1-1.7,1.8-3,2.3l4.4,6.2H553.9z M552.6,561.6
			c-0.8-0.7-2-1-3.5-1H545v7.6h4.1c1.5,0,2.7-0.3,3.5-1c0.8-0.7,1.2-1.6,1.2-2.8C553.8,563.2,553.4,562.3,552.6,561.6z"/>
		<path class="st0" d="M563.5,576.3c-1.4-0.4-2.4-1-3.2-1.7l1.2-2.7c0.8,0.6,1.7,1.1,2.9,1.5c1.1,0.4,2.3,0.6,3.4,0.6
			c1.4,0,2.5-0.2,3.2-0.7c0.7-0.5,1-1,1-1.8c0-0.5-0.2-1-0.6-1.3c-0.4-0.4-0.9-0.6-1.5-0.8c-0.6-0.2-1.4-0.4-2.4-0.7
			c-1.4-0.3-2.6-0.7-3.5-1c-0.9-0.3-1.7-0.9-2.3-1.6c-0.6-0.7-1-1.7-1-3c0-1,0.3-2,0.9-2.9c0.6-0.9,1.4-1.5,2.6-2
			c1.1-0.5,2.6-0.8,4.2-0.8c1.2,0,2.3,0.1,3.4,0.4c1.1,0.3,2.1,0.7,2.9,1.2l-1.1,2.7c-0.8-0.5-1.7-0.9-2.6-1.1
			c-0.9-0.3-1.8-0.4-2.6-0.4c-1.4,0-2.4,0.2-3.1,0.7s-1,1.1-1,1.9c0,0.5,0.2,1,0.6,1.3c0.4,0.3,0.9,0.6,1.5,0.8
			c0.6,0.2,1.4,0.4,2.4,0.7c1.4,0.3,2.6,0.7,3.5,1c0.9,0.4,1.7,0.9,2.3,1.6s1,1.7,1,2.9c0,1-0.3,2-0.9,2.8s-1.4,1.5-2.6,2
			c-1.2,0.5-2.6,0.8-4.2,0.8C566.3,576.9,564.9,576.7,563.5,576.3z"/>
		<path class="st0" d="M600.4,566.9h3.3v7.6c-1,0.8-2.1,1.4-3.4,1.8c-1.3,0.4-2.6,0.6-4,0.6c-1.9,0-3.7-0.4-5.2-1.3
			c-1.6-0.8-2.8-2-3.7-3.5c-0.9-1.5-1.3-3.2-1.3-5c0-1.9,0.4-3.5,1.3-5c0.9-1.5,2.1-2.6,3.7-3.5c1.6-0.8,3.3-1.3,5.3-1.3
			c1.6,0,3,0.3,4.3,0.8c1.3,0.5,2.4,1.3,3.3,2.3l-2.2,2.2c-1.4-1.4-3.2-2.2-5.2-2.2c-1.3,0-2.5,0.3-3.6,0.8c-1,0.6-1.9,1.3-2.4,2.4
			c-0.6,1-0.9,2.2-0.9,3.5c0,1.3,0.3,2.4,0.9,3.4c0.6,1,1.4,1.8,2.4,2.4c1,0.6,2.2,0.9,3.5,0.9c1.5,0,2.8-0.3,3.9-1V566.9z"/>
		<path class="st0" d="M621.3,576.6l-3.9-5.6c-0.2,0-0.4,0-0.7,0h-4.3v5.5h-3.5v-19h7.8c1.6,0,3.1,0.3,4.3,0.8
			c1.2,0.5,2.2,1.3,2.8,2.3c0.7,1,1,2.2,1,3.6c0,1.4-0.3,2.7-1,3.7c-0.7,1-1.7,1.8-3,2.3l4.4,6.2H621.3z M620.1,561.6
			c-0.8-0.7-2-1-3.5-1h-4.1v7.6h4.1c1.5,0,2.7-0.3,3.5-1c0.8-0.7,1.2-1.6,1.2-2.8C621.3,563.2,620.9,562.3,620.1,561.6z"/>
		<path class="st0" d="M632.9,575.6c-1.6-0.8-2.8-2-3.7-3.5c-0.9-1.5-1.3-3.2-1.3-5c0-1.8,0.4-3.5,1.3-5c0.9-1.5,2.1-2.7,3.7-3.5
			c1.6-0.8,3.3-1.3,5.2-1.3c1.9,0,3.7,0.4,5.2,1.3c1.6,0.8,2.8,2,3.7,3.5c0.9,1.5,1.3,3.2,1.3,5c0,1.9-0.4,3.5-1.3,5
			c-0.9,1.5-2.1,2.6-3.7,3.5c-1.6,0.8-3.3,1.3-5.2,1.3C636.2,576.9,634.5,576.5,632.9,575.6z M641.6,573c1-0.6,1.8-1.4,2.4-2.4
			c0.6-1,0.9-2.2,0.9-3.4c0-1.3-0.3-2.4-0.9-3.4c-0.6-1-1.4-1.8-2.4-2.4c-1-0.6-2.2-0.9-3.4-0.9s-2.4,0.3-3.4,0.9
			c-1,0.6-1.8,1.4-2.4,2.4c-0.6,1-0.9,2.2-0.9,3.4c0,1.3,0.3,2.4,0.9,3.4c0.6,1,1.4,1.8,2.4,2.4c1,0.6,2.2,0.9,3.4,0.9
			S640.6,573.5,641.6,573z"/>
		<path class="st0" d="M679.8,557.7l-6.3,19h-3.7l-4.7-14l-4.8,14h-3.8l-6.3-19h3.7l4.7,14.4l4.9-14.4h3.3l4.8,14.5l4.9-14.5H679.8z
			"/>
		<path class="st0" d="M687.2,560.6h-6.3v-3H697v3h-6.3v16h-3.5V560.6z"/>
		<path class="st0" d="M717.1,557.7v19h-3.5v-8.1h-9.8v8.1h-3.5v-19h3.5v7.8h9.8v-7.8H717.1z"/>
	</g>
</g>
</svg>
