<?xml version="1.0" encoding="utf-8"?>
<!-- Generator: Adobe Illustrator 24.1.0, SVG Export Plug-In . SVG Version: 6.00 Build 0)  -->
<svg version="1.1" id="Layer_1" xmlns="http://www.w3.org/2000/svg" xmlns:xlink="http://www.w3.org/1999/xlink" x="0px" y="0px"
	 viewBox="0 0 1080 810" style="enable-background:new 0 0 1080 810;" xml:space="preserve">
<style type="text/css">
	.st0{fill:#00AAC4;}
	.st1{fill:#009345;}
	.st2{fill:#4D186E;}
</style>
	<g>
		<g>
			<polygon class="st0" points="589.9,369.3 611.5,347.7 633,326.1 676.2,369.3 658.1,420.8 			"/>
		</g>
		<g>
			<polygon class="st0" points="421.9,420.8 403.8,369.3 447,326.1 468.5,347.7 490.1,369.3 			"/>
		</g>
		<g>
			<polygon class="st1" points="586.5,365.9 608.1,344.3 629.7,322.7 586.5,279.6 543.4,322.7 565,344.3 			"/>
		</g>
		<g>
			<polygon class="st0" points="540,326.1 518.4,347.7 496.9,369.3 540,412.4 583.1,369.3 561.6,347.7 			"/>
		</g>
		<g>
			
				<rect x="509.5" y="245.7" transform="matrix(0.7071 -0.7071 0.7071 0.7071 -37.1583 462.7438)" class="st2" width="61" height="61"/>
		</g>
		<g>
			<polygon class="st1" points="493.5,279.6 450.3,322.7 493.5,365.9 515.1,344.3 536.6,322.7 			"/>
		</g>
	</g>
</svg>
